<?xml version="1.0" encoding="utf-8"?>
<!-- Generator: Adobe Illustrator 16.0.3, SVG Export Plug-In . SVG Version: 6.00 Build 0)  -->
<!DOCTYPE svg PUBLIC "-//W3C//DTD SVG 1.1//EN" "http://www.w3.org/Graphics/SVG/1.1/DTD/svg11.dtd">
<svg version="1.1" id="Basket-full" xmlns="http://www.w3.org/2000/svg" xmlns:xlink="http://www.w3.org/1999/xlink" x="0px"
	 y="0px" width="20px" height="20px" viewBox="0 0 20 20" enable-background="new 0 0 20 20" xml:space="preserve">
<g>
	<path fill="#FFFFFF" d="M6.648,5.276c0.249-2.109,1.648-3.729,3.353-3.729c1.692,0,3.086,1.596,3.35,3.681
		c0.448,0.232,0.87,0.506,1.257,0.823V5.937V5.936C14.605,2.657,12.544,0,10,0S5.395,2.657,5.395,5.936v0.001v0.201
		C5.78,5.809,6.199,5.519,6.648,5.276z"/>
	<path fill-rule="evenodd" clip-rule="evenodd" fill="#FFFFFF" d="M8.921,16.182L8.01,15.269l-3.337-3.031l1.513-1.515l2.735,2.429
		l4.893-5.211l1.513,1.515L8.921,16.182z"/>
	<path fill="#FFFFFF" d="M15.398,6.821c1.138,1.271,1.836,2.945,1.836,4.786c0,3.969-3.217,7.187-7.186,7.187
		c-3.969,0-7.186-3.218-7.186-7.187c0-1.841,0.698-3.514,1.836-4.786H0.964L3.547,20h12.907l2.582-13.179H15.398z"/>
</g>
</svg>
