<?xml version="1.0" encoding="utf-8"?>
<!-- Generator: Adobe Illustrator 16.0.3, SVG Export Plug-In . SVG Version: 6.00 Build 0)  -->
<!DOCTYPE svg PUBLIC "-//W3C//DTD SVG 1.1//EN" "http://www.w3.org/Graphics/SVG/1.1/DTD/svg11.dtd">
<svg version="1.1" id="Calque_1" xmlns="http://www.w3.org/2000/svg" xmlns:xlink="http://www.w3.org/1999/xlink" x="0px" y="0px"
	 width="20px" height="20px" viewBox="0 0 20 20" enable-background="new 0 0 20 20" xml:space="preserve">
<path fill-rule="evenodd" clip-rule="evenodd" fill="#fff" d="M12.242,9.698c1.436-0.835,2.422-2.421,2.422-4.26
	c0-2.696-2.094-4.891-4.665-4.891c-2.572,0-4.663,2.194-4.663,4.891c0,1.824,0.969,3.4,2.385,4.24
	c-2.996,1.327-5.523,3.295-5.523,6.049c0,3.725,4.508,3.725,7.801,3.725c3.657,0,7.801,0,7.801-3.53
	C17.801,13.429,15.289,11.127,12.242,9.698z M6.776,5.438c0-1.864,1.446-3.38,3.224-3.38s3.225,1.517,3.225,3.38
	c0,1.863-1.447,3.38-3.225,3.38S6.776,7.301,6.776,5.438z M10,17.959c-3.36,0-6.141-0.177-6.141-2.347
	c0-2.377,3.035-4.962,6.141-4.962c3.046,0,6.142,2.757,6.142,5.141C16.142,17.803,13.595,17.959,10,17.959z"/>
</svg>
