<?xml version="1.0" encoding="utf-8"?>
<!-- Generator: Adobe Illustrator 16.0.3, SVG Export Plug-In . SVG Version: 6.00 Build 0)  -->
<!DOCTYPE svg PUBLIC "-//W3C//DTD SVG 1.1//EN" "http://www.w3.org/Graphics/SVG/1.1/DTD/svg11.dtd">
<svg version="1.1" id="Calque_1" xmlns="http://www.w3.org/2000/svg" xmlns:xlink="http://www.w3.org/1999/xlink" x="0px" y="0px"
	 width="20px" height="20px" viewBox="0 0 20 20" enable-background="new 0 0 20 20" xml:space="preserve">
<path fill-rule="evenodd" clip-rule="evenodd" fill="#213f41" d="M18.743,16.492c0,1.683-1.895,3.241-3.175,3.241s-5.556,0-5.556,0
	s-4.288,0-5.572,0c-1.283,0-3.183-1.559-3.183-3.241s0-10.555,0-10.555h4.624c0-1.298,0-2.389,0-2.596
	c0-0.56,0.249-3.061,4.114-3.075c0,0,0,0,0-0.001c0.004,0,0.006,0.001,0.01,0.001c0.005,0,0.009-0.001,0.015-0.001v0.001
	c3.851,0.014,4.099,2.515,4.099,3.076c0,0.206,0,1.297,0,2.595h4.625C18.743,5.938,18.743,14.81,18.743,16.492z M12.617,3.343
	c0-0.413-0.338-1.533-2.613-1.539C7.726,1.812,7.387,2.93,7.387,3.342c0,0.154,0,1.265,0,2.596h2.625h2.605
	C12.617,4.606,12.617,3.497,12.617,3.343z M17.155,7.559h-3.037c0,1.793,0,3.475,0,3.475h-1.501c0,0,0-1.682,0-3.475h-2.605H7.387
	c0,1.792,0,3.475,0,3.475H5.881c0,0,0-1.681,0-3.475H2.849c0,0,0,8.361,0,8.934s1.104,1.62,2.388,1.62c1.283,0,4.776,0,4.776,0
	s3.483,0,4.762,0c1.28,0,2.381-1.048,2.381-1.62S17.155,7.559,17.155,7.559z"/>
</svg>
