<?xml version="1.0" encoding="utf-8"?>
<!-- Generator: Adobe Illustrator 16.0.3, SVG Export Plug-In . SVG Version: 6.00 Build 0)  -->
<!DOCTYPE svg PUBLIC "-//W3C//DTD SVG 1.1//EN" "http://www.w3.org/Graphics/SVG/1.1/DTD/svg11.dtd">
<svg version="1.1" id="Calque_1_-_copie" xmlns="http://www.w3.org/2000/svg" xmlns:xlink="http://www.w3.org/1999/xlink" x="0px"
	 y="0px" width="20px" height="20px" viewBox="0 0 20 20" enable-background="new 0 0 20 20" xml:space="preserve">
<g>
	<path fill-rule="evenodd" clip-rule="evenodd" fill="#214042" d="M11.937,17.769c0.398,0.439,0.417,1.092,0.042,1.451
		c-0.376,0.361-1.002,0.299-1.4-0.143l-2.337-2.236c0,0-1.584,0.813-2.521,0.813c-2.453,0-4.44-2.053-4.44-4.584
		c0-2.531,1.987-4.583,4.44-4.583c2.452,0,4.44,2.052,4.44,4.583c0,0.927-0.726,2.295-0.726,2.295L11.937,17.769z M5.72,9.682
		c-1.813,0-3.282,1.516-3.282,3.388c0,1.87,1.47,3.387,3.282,3.387c1.813,0,3.283-1.517,3.283-3.387
		C9.003,11.197,7.533,9.682,5.72,9.682z"/>
	<path fill="#393939" d="M1.993,3.444h1.004C3.056,3.253,3.141,3.07,3.242,2.901L2.577,2.234C2.42,2.08,2.42,1.827,2.577,1.67
		l0.282-0.281c0.156-0.157,0.41-0.157,0.565,0l0.677,0.675c0.183-0.104,0.381-0.185,0.592-0.239V0.946c0-0.22,0.179-0.4,0.399-0.4
		h0.4c0.22,0,0.399,0.181,0.399,0.4v0.879c0.229,0.058,0.445,0.15,0.643,0.269l0.566-0.564c0.155-0.157,0.41-0.157,0.565,0
		L7.95,1.811c0.156,0.157,0.154,0.41-0.001,0.566L7.373,2.954c0.122,0.213,0.213,0.445,0.265,0.691h0.754c0.221,0,0.4,0.179,0.4,0.4
		v0.4c0,0.221-0.18,0.399-0.4,0.399H7.588C7.515,5.085,7.405,5.307,7.265,5.509l0.543,0.544C7.964,6.21,7.964,6.463,7.809,6.62
		L7.526,6.901c-0.157,0.157-0.41,0.157-0.566,0L6.353,6.294c-0.205,0.1-0.426,0.175-0.661,0.213v0.835
		c0,0.221-0.179,0.401-0.399,0.402H4.893c-0.221-0.001-0.4-0.181-0.4-0.402V6.405c-0.2-0.072-0.392-0.167-0.564-0.289L3.283,6.76
		c-0.156,0.157-0.408,0.157-0.565,0L2.436,6.477C2.278,6.322,2.278,6.069,2.437,5.912l0.706-0.706
		C3.055,5.029,2.988,4.842,2.945,4.645H1.993c-0.221,0-0.399-0.179-0.4-0.401V3.845C1.594,3.625,1.772,3.444,1.993,3.444z
		 M5.292,5.144c0.553,0,1-0.447,1-0.999c0-0.553-0.447-1-1-1s-1,0.447-1,1C4.292,4.697,4.739,5.144,5.292,5.144z"/>
	<path fill="#393939" d="M18.075,8.682h-1.211c-0.085-0.375-0.23-0.731-0.427-1.055l0.928-0.882c0.25-0.24,0.252-0.628,0.002-0.866
		l-0.456-0.433c-0.251-0.238-0.659-0.238-0.91,0L15.09,6.312c-0.319-0.184-0.666-0.324-1.035-0.414V4.556
		c0-0.338-0.288-0.612-0.644-0.612h-0.643c-0.356,0-0.642,0.274-0.642,0.612v1.343c-0.341,0.084-0.658,0.207-0.954,0.366
		l-1.087-1.032c-0.251-0.238-0.658-0.238-0.911,0l-0.453,0.43c-0.253,0.24-0.253,0.627,0,0.865l1.071,1.02
		c-0.165,0.258-0.301,0.536-0.397,0.83H8.918c1.288,1.003,2.122,2.509,2.18,4.201c0.224,0.128,0.457,0.241,0.705,0.324v1.438
		c0,0.338,0.289,0.611,0.645,0.611h0.643c0.355,0,0.643-0.273,0.643-0.611v-1.278c0.375-0.06,0.734-0.172,1.063-0.327l0.977,0.929
		c0.25,0.238,0.66,0.238,0.912,0l0.454-0.432c0.25-0.238,0.25-0.626-0.002-0.866l-0.875-0.831c0.226-0.309,0.404-0.648,0.521-1.017
		h1.293c0.356,0,0.646-0.274,0.646-0.61V9.294C18.721,8.956,18.432,8.682,18.075,8.682z M13.09,10.975
		c-0.891,0-1.61-0.682-1.61-1.529c0-0.844,0.72-1.526,1.61-1.526c0.887,0,1.606,0.682,1.606,1.526
		C14.696,10.293,13.977,10.975,13.09,10.975z"/>
</g>
</svg>
