<?xml version="1.0" encoding="utf-8"?>
<!-- Generator: Adobe Illustrator 16.0.3, SVG Export Plug-In . SVG Version: 6.00 Build 0)  -->
<!DOCTYPE svg PUBLIC "-//W3C//DTD SVG 1.1//EN" "http://www.w3.org/Graphics/SVG/1.1/DTD/svg11.dtd">
<svg version="1.1" id="back-erase" xmlns="http://www.w3.org/2000/svg" xmlns:xlink="http://www.w3.org/1999/xlink" x="0px" y="0px"
	 width="20px" height="20px" viewBox="0 0 20 20" enable-background="new 0 0 20 20" xml:space="preserve">
<path fill="#333333" d="M10,0C4.479,0,0,4.476,0,10c0,5.523,4.479,10,10,10c5.523,0,10-4.477,10-10C20,4.476,15.523,0,10,0z
	 M10,19.034c-4.983,0-9.034-4.052-9.034-9.034c0-4.979,4.051-9.034,9.034-9.034c4.982,0,9.034,4.055,9.034,9.034
	C19.034,14.982,14.982,19.034,10,19.034z"/>
<polygon fill="#333333" points="15.542,5.383 14.618,4.459 10,9.078 5.382,4.457 4.458,5.38 9.076,10.001 4.458,14.619 
	5.382,15.543 10,10.925 14.618,15.543 15.542,14.619 10.924,10.001 "/>
</svg>
