<?xml version="1.0" encoding="utf-8"?>
<!-- Generator: Adobe Illustrator 16.0.3, SVG Export Plug-In . SVG Version: 6.00 Build 0)  -->
<!DOCTYPE svg PUBLIC "-//W3C//DTD SVG 1.1//EN" "http://www.w3.org/Graphics/SVG/1.1/DTD/svg11.dtd">
<svg version="1.1" id="Calque_3" xmlns="http://www.w3.org/2000/svg" xmlns:xlink="http://www.w3.org/1999/xlink" x="0px" y="0px"
	 width="20px" height="20px" viewBox="0 0 20 20" enable-background="new 0 0 20 20" xml:space="preserve">
<g>
	<g>
		<path fill="#333333" d="M12.634,1.75c0.102,0,0.216,0.054,0.307,0.146l4.254,4.271c0.08,0.08,0.126,0.2,0.126,0.329
			s-0.046,0.25-0.13,0.333l-7.415,7.498c-0.403,0.402-1.132,0.783-1.498,0.783H6.451c-0.365,0-1.093-0.381-1.481-0.768l-2.162-2.328
			c-0.168-0.168-0.169-0.451-0.001-0.619l9.52-9.52C12.406,1.794,12.516,1.75,12.634,1.75 M12.634,1
			c-0.306,0-0.609,0.115-0.839,0.346l-9.519,9.518c-0.462,0.461-0.462,1.217,0,1.68l2.148,2.314
			c0.464,0.461,1.375,1.002,2.026,1.002h1.826c0.654,0,1.564-0.541,2.027-1.002l7.419-7.502c0.462-0.462,0.462-1.259,0-1.72
			l-4.252-4.27C13.242,1.136,12.938,1,12.634,1L12.634,1z"/>
	</g>
	<path fill="none" stroke="#333333" stroke-width="1.25" d="M13.889,10.166L8.586,4.889"/>
</g>
<rect x="1.667" y="17.73" fill="#333333" width="16.625" height="0.801"/>
</svg>
