<?xml version="1.0" encoding="utf-8"?>
<!-- Generator: Adobe Illustrator 16.0.3, SVG Export Plug-In . SVG Version: 6.00 Build 0)  -->
<!DOCTYPE svg PUBLIC "-//W3C//DTD SVG 1.1//EN" "http://www.w3.org/Graphics/SVG/1.1/DTD/svg11.dtd">
<svg version="1.1" id="eraser" xmlns="http://www.w3.org/2000/svg" xmlns:xlink="http://www.w3.org/1999/xlink" x="0px" y="0px"
	 width="20px" height="20px" viewBox="0 0 20 20" enable-background="new 0 0 20 20" xml:space="preserve">
<g>
	<rect x="0.667" y="17.73" fill="#1D1D1B" width="16.625" height="1.188"/>
	<path fill="#1D1D1B" d="M19.321,6.32l-4.854-4.872c-0.229-0.23-0.533-0.366-0.838-0.366c-0.306,0-0.609,0.115-0.839,0.346
		l-9.519,9.518c-0.461,0.461-0.461,1.217,0,1.68l2.751,2.916c0.464,0.462,1.375,1.002,2.027,1.002h1.826
		c0.654,0,1.564-0.54,2.027-1.002l7.419-7.501C19.783,7.578,19.783,6.781,19.321,6.32z M10.933,14.702
		c-0.239,0.239-0.719,0.653-1.058,0.653H8.049c-0.336,0-0.948-0.414-1.188-0.653l-2.75-2.822l4.323-4.356l4.791,4.792L10.933,14.702
		z"/>
</g>
</svg>
