<?xml version="1.0" encoding="utf-8"?>
<!-- Generator: Adobe Illustrator 16.0.3, SVG Export Plug-In . SVG Version: 6.00 Build 0)  -->
<!DOCTYPE svg PUBLIC "-//W3C//DTD SVG 1.1//EN" "http://www.w3.org/Graphics/SVG/1.1/DTD/svg11.dtd">
<svg version="1.1" id="Calque_1" xmlns="http://www.w3.org/2000/svg" xmlns:xlink="http://www.w3.org/1999/xlink" x="0px" y="0px"
	 width="20px" height="20px" viewBox="0 0 20 20" enable-background="new 0 0 20 20" xml:space="preserve">
<path fill-rule="evenodd" clip-rule="evenodd" fill="#e63120" d="M18.887,16.766l-2.122,2.121l-4.633-4.633
	c-1.185,0.785-2.602,1.249-4.13,1.249c-4.14,0-7.495-3.361-7.495-7.507s3.355-7.507,7.495-7.507s7.496,3.361,7.496,7.507
	c0,1.529-0.463,2.948-1.246,4.135L18.887,16.766z M8.002,3.507c-2.489,0-4.507,2.016-4.507,4.501c0,2.486,2.018,4.501,4.507,4.501
	s4.508-2.015,4.508-4.501C12.51,5.522,10.491,3.507,8.002,3.507z"/>
</svg>
