<?xml version="1.0" encoding="utf-8"?>
<!-- Generator: Adobe Illustrator 16.0.3, SVG Export Plug-In . SVG Version: 6.00 Build 0)  -->
<!DOCTYPE svg PUBLIC "-//W3C//DTD SVG 1.1//EN" "http://www.w3.org/Graphics/SVG/1.1/DTD/svg11.dtd">
<svg version="1.1" id="quest" xmlns="http://www.w3.org/2000/svg" xmlns:xlink="http://www.w3.org/1999/xlink" x="0px" y="0px"
	 width="20px" height="20px" viewBox="0 0 20 20" enable-background="new 0 0 20 20" xml:space="preserve">
<g>
	<path d="M9.548,13.449c-0.871,0-1.541,0.667-1.541,1.538c0,0.814,0.67,1.521,1.541,1.521c0.833,0,1.52-0.706,1.52-1.521
		C11.068,14.137,10.398,13.449,9.548,13.449z"/>
	<path d="M9.909,3.489c-1.211,0-3.366,0.597-3.366,1.066l0.035,0.201l0.47,1.231l0.201,0.18c0.18,0,1.14-0.597,2.262-0.597
		c0.979,0,1.505,0.452,1.505,1.285c0,0.977-0.635,1.34-1.287,1.576c-0.635,0.216-1.285,0.29-1.285,0.724v2.265
		c0,0.324,0.053,0.378,0.378,0.378h1.322c0.328,0,0.381-0.054,0.381-0.378v-1.232c1.069-0.363,2.933-0.98,2.933-3.315
		C13.458,4.901,12.1,3.489,9.909,3.489z"/>
	<path d="M10,0.001c-5.521,0-10,4.476-10,9.997c0,5.525,4.479,10,10,10s10-4.476,10-10C20,4.477,15.521,0.001,10,0.001z M10,18.536
		c-4.707,0-8.538-3.828-8.538-8.535c0-4.709,3.831-8.538,8.538-8.538c4.707,0,8.538,3.829,8.538,8.538
		C18.538,14.708,14.707,18.536,10,18.536z"/>
</g>
</svg>
