<?xml version="1.0" encoding="utf-8"?>
<!-- Generator: Adobe Illustrator 16.0.3, SVG Export Plug-In . SVG Version: 6.00 Build 0)  -->
<!DOCTYPE svg PUBLIC "-//W3C//DTD SVG 1.1//EN" "http://www.w3.org/Graphics/SVG/1.1/DTD/svg11.dtd">
<svg version="1.1" id="Calque_2_-_copie" xmlns="http://www.w3.org/2000/svg" xmlns:xlink="http://www.w3.org/1999/xlink" x="0px"
	 y="0px" width="20px" height="20px" viewBox="0 0 20 20" enable-background="new 0 0 20 20" xml:space="preserve">
<g>
	<path fill="#FFFFFF" d="M17.633,1.718l-2.838,2.829c-0.297-2.4-2.238-4.269-4.605-4.269c-2.572,0-4.663,2.194-4.663,4.891
		c0,1.824,0.969,3.4,2.385,4.24c-2.996,1.327-5.523,3.295-5.523,6.049c0,0.485,0.081,0.905,0.221,1.272l-1.616,1.616l1.373,1.375
		l16.638-16.63L17.633,1.718z M6.967,5.169c0-1.863,1.446-3.38,3.224-3.38s3.225,1.518,3.225,3.38c0,0.308-0.053,0.601-0.127,0.884
		l-2.417,2.416c-0.22,0.051-0.447,0.08-0.681,0.08C8.413,8.549,6.967,7.032,6.967,5.169z M8.781,10.561l-4.726,4.727
		C4.094,13.29,6.251,11.169,8.781,10.561z"/>
	<path fill="#FFFFFF" d="M14.293,10.462l-0.881,0.883c1.682,1.015,2.922,2.67,2.922,4.178c0,2.012-2.547,2.168-6.143,2.168
		c-1.088,0-2.113-0.02-3.005-0.119l-1.336,1.337c1.382,0.271,2.966,0.275,4.341,0.275c3.658,0,7.8,0,7.8-3.53
		C17.992,13.694,16.438,11.854,14.293,10.462z"/>
</g>
</svg>
